<?xml version="1.0" encoding="UTF-8" standalone="no"?>
<!DOCTYPE svg PUBLIC "-//W3C//DTD SVG 1.1//EN"
 "http://www.w3.org/Graphics/SVG/1.1/DTD/svg11.dtd">
<!-- Generated by graphviz version 2.47.0 (20210316.0004)
 -->
<!-- Title: dependencies Pages: 1 -->
<svg width="546pt" height="284pt"
 viewBox="0.00 0.00 546.00 284.00" xmlns="http://www.w3.org/2000/svg" xmlns:xlink="http://www.w3.org/1999/xlink">
<g id="graph0" class="graph" transform="scale(1 1) rotate(0) translate(4 280)">
<title>dependencies</title>
<polygon fill="white" stroke="transparent" points="-4,4 -4,-280 542,-280 542,4 -4,4"/>
<text text-anchor="start" x="248.01" y="-42.4" font-family="Times-12" font-weight="bold" font-size="14.00">Legend</text>
<polygon fill="#ffffb3" stroke="transparent" points="35,-10 35,-30 55,-30 55,-10 35,-10"/>
<text text-anchor="start" x="58.63" y="-15.4" font-family="Times-12" font-size="14.00"> &#160;Declarations</text>
<polygon fill="#8dd3c7" stroke="transparent" points="148,-10 148,-30 168,-30 168,-10 148,-10"/>
<text text-anchor="start" x="171.73" y="-15.4" font-family="Times-12" font-size="14.00"> &#160;Module</text>
<polygon fill="#80b1d3" stroke="transparent" points="234,-10 234,-30 254,-30 254,-10 234,-10"/>
<text text-anchor="start" x="257.78" y="-15.4" font-family="Times-12" font-size="14.00"> &#160;Bootstrap</text>
<polygon fill="#fdb462" stroke="transparent" points="331,-10 331,-30 351,-30 351,-10 331,-10"/>
<text text-anchor="start" x="354.67" y="-15.4" font-family="Times-12" font-size="14.00"> &#160;Providers</text>
<polygon fill="#fb8072" stroke="transparent" points="427,-10 427,-30 447,-30 447,-10 427,-10"/>
<text text-anchor="start" x="450.73" y="-15.4" font-family="Times-12" font-size="14.00"> &#160;Exports</text>
<g id="clust1" class="cluster">
<title>cluster_SharedModule</title>
<polygon fill="none" stroke="black" stroke-dasharray="1,5" points="8,-70 8,-268 530,-268 530,-70 8,-70"/>
</g>
<g id="clust2" class="cluster">
<title>cluster_SharedModule_declarations</title>
<polygon fill="none" stroke="black" points="22,-78 22,-130 516,-130 516,-78 22,-78"/>
</g>
<g id="clust7" class="cluster">
<title>cluster_SharedModule_exports</title>
<polygon fill="none" stroke="black" points="16,-208 16,-260 522,-260 522,-208 16,-208"/>
</g>
<!-- NavbarComponent -->
<g id="node1" class="node">
<title>NavbarComponent</title>
<polygon fill="#ffffb3" stroke="black" points="508.03,-122 385.97,-122 385.97,-86 508.03,-86 508.03,-122"/>
<text text-anchor="middle" x="447" y="-99.8" font-family="Times,serif" font-size="14.00">NavbarComponent</text>
</g>
<!-- SharedModule -->
<g id="node4" class="node">
<title>SharedModule</title>
<polygon fill="#8dd3c7" stroke="black" points="335.42,-187 332.42,-191 311.42,-191 308.42,-187 236.58,-187 236.58,-151 335.42,-151 335.42,-187"/>
<text text-anchor="middle" x="286" y="-164.8" font-family="Times,serif" font-size="14.00">SharedModule</text>
</g>
<!-- NavbarComponent&#45;&gt;SharedModule -->
<g id="edge1" class="edge">
<title>NavbarComponent&#45;&gt;SharedModule</title>
<path fill="none" stroke="black" d="M468.17,-122.02C468.17,-139.37 468.17,-163 468.17,-163 468.17,-163 345.3,-163 345.3,-163"/>
<polygon fill="black" stroke="black" points="345.3,-159.5 335.3,-163 345.3,-166.5 345.3,-159.5"/>
</g>
<!-- SidebarCarritoComponent -->
<g id="node2" class="node">
<title>SidebarCarritoComponent</title>
<polygon fill="#ffffb3" stroke="black" points="367.75,-122 204.25,-122 204.25,-86 367.75,-86 367.75,-122"/>
<text text-anchor="middle" x="286" y="-99.8" font-family="Times,serif" font-size="14.00">SidebarCarritoComponent</text>
</g>
<!-- SidebarCarritoComponent&#45;&gt;SharedModule -->
<g id="edge2" class="edge">
<title>SidebarCarritoComponent&#45;&gt;SharedModule</title>
<path fill="none" stroke="black" d="M286,-122.11C286,-122.11 286,-140.99 286,-140.99"/>
<polygon fill="black" stroke="black" points="282.5,-140.99 286,-150.99 289.5,-140.99 282.5,-140.99"/>
</g>
<!-- SidebarMenuComponent -->
<g id="node3" class="node">
<title>SidebarMenuComponent</title>
<polygon fill="#ffffb3" stroke="black" points="186.25,-122 29.75,-122 29.75,-86 186.25,-86 186.25,-122"/>
<text text-anchor="middle" x="108" y="-99.8" font-family="Times,serif" font-size="14.00">SidebarMenuComponent</text>
</g>
<!-- SidebarMenuComponent&#45;&gt;SharedModule -->
<g id="edge3" class="edge">
<title>SidebarMenuComponent&#45;&gt;SharedModule</title>
<path fill="none" stroke="black" d="M132.63,-122.02C132.63,-139.37 132.63,-163 132.63,-163 132.63,-163 226.63,-163 226.63,-163"/>
<polygon fill="black" stroke="black" points="226.63,-166.5 236.63,-163 226.63,-159.5 226.63,-166.5"/>
</g>
<!-- NavbarComponent  -->
<g id="node5" class="node">
<title>NavbarComponent </title>
<polygon fill="#fb8072" stroke="black" points="514.03,-252 387.97,-252 387.97,-216 514.03,-216 514.03,-252"/>
<text text-anchor="middle" x="451" y="-229.8" font-family="Times,serif" font-size="14.00">NavbarComponent </text>
</g>
<!-- SharedModule&#45;&gt;NavbarComponent  -->
<g id="edge4" class="edge">
<title>SharedModule&#45;&gt;NavbarComponent </title>
<path fill="none" stroke="black" stroke-dasharray="5,2" d="M335.29,-175C376.33,-175 428.08,-175 428.08,-175 428.08,-175 428.08,-205.98 428.08,-205.98"/>
<polygon fill="black" stroke="black" points="424.58,-205.98 428.08,-215.98 431.58,-205.98 424.58,-205.98"/>
</g>
<!-- SidebarCarritoComponent  -->
<g id="node6" class="node">
<title>SidebarCarritoComponent </title>
<polygon fill="#fb8072" stroke="black" points="369.75,-252 202.25,-252 202.25,-216 369.75,-216 369.75,-252"/>
<text text-anchor="middle" x="286" y="-229.8" font-family="Times,serif" font-size="14.00">SidebarCarritoComponent </text>
</g>
<!-- SharedModule&#45;&gt;SidebarCarritoComponent  -->
<g id="edge5" class="edge">
<title>SharedModule&#45;&gt;SidebarCarritoComponent </title>
<path fill="none" stroke="black" stroke-dasharray="5,2" d="M286,-187.11C286,-187.11 286,-205.99 286,-205.99"/>
<polygon fill="black" stroke="black" points="282.5,-205.99 286,-215.99 289.5,-205.99 282.5,-205.99"/>
</g>
<!-- SidebarMenuComponent  -->
<g id="node7" class="node">
<title>SidebarMenuComponent </title>
<polygon fill="#fb8072" stroke="black" points="184.25,-252 23.75,-252 23.75,-216 184.25,-216 184.25,-252"/>
<text text-anchor="middle" x="104" y="-229.8" font-family="Times,serif" font-size="14.00">SidebarMenuComponent </text>
</g>
<!-- SharedModule&#45;&gt;SidebarMenuComponent  -->
<g id="edge6" class="edge">
<title>SharedModule&#45;&gt;SidebarMenuComponent </title>
<path fill="none" stroke="black" stroke-dasharray="5,2" d="M236.67,-175C176.04,-175 81.12,-175 81.12,-175 81.12,-175 81.12,-205.98 81.12,-205.98"/>
<polygon fill="black" stroke="black" points="77.62,-205.98 81.12,-215.98 84.62,-205.98 77.62,-205.98"/>
</g>
</g>
</svg>
