<?xml version="1.0" encoding="UTF-8" standalone="no"?>
<!DOCTYPE svg PUBLIC "-//W3C//DTD SVG 1.1//EN"
 "http://www.w3.org/Graphics/SVG/1.1/DTD/svg11.dtd">
<!-- Generated by graphviz version 2.47.0 (20210316.0004)
 -->
<!-- Title: dependencies Pages: 1 -->
<svg width="686pt" height="284pt"
 viewBox="0.00 0.00 686.00 284.00" xmlns="http://www.w3.org/2000/svg" xmlns:xlink="http://www.w3.org/1999/xlink">
<g id="graph0" class="graph" transform="scale(1 1) rotate(0) translate(4 280)">
<title>dependencies</title>
<polygon fill="white" stroke="transparent" points="-4,4 -4,-280 682,-280 682,4 -4,4"/>
<text text-anchor="start" x="318.01" y="-42.4" font-family="Times-12" font-weight="bold" font-size="14.00">Legend</text>
<polygon fill="#ffffb3" stroke="transparent" points="105,-10 105,-30 125,-30 125,-10 105,-10"/>
<text text-anchor="start" x="128.63" y="-15.4" font-family="Times-12" font-size="14.00"> &#160;Declarations</text>
<polygon fill="#8dd3c7" stroke="transparent" points="218,-10 218,-30 238,-30 238,-10 218,-10"/>
<text text-anchor="start" x="241.73" y="-15.4" font-family="Times-12" font-size="14.00"> &#160;Module</text>
<polygon fill="#80b1d3" stroke="transparent" points="304,-10 304,-30 324,-30 324,-10 304,-10"/>
<text text-anchor="start" x="327.78" y="-15.4" font-family="Times-12" font-size="14.00"> &#160;Bootstrap</text>
<polygon fill="#fdb462" stroke="transparent" points="401,-10 401,-30 421,-30 421,-10 401,-10"/>
<text text-anchor="start" x="424.67" y="-15.4" font-family="Times-12" font-size="14.00"> &#160;Providers</text>
<polygon fill="#fb8072" stroke="transparent" points="497,-10 497,-30 517,-30 517,-10 497,-10"/>
<text text-anchor="start" x="520.73" y="-15.4" font-family="Times-12" font-size="14.00"> &#160;Exports</text>
<g id="clust1" class="cluster">
<title>cluster_SharedModule</title>
<polygon fill="none" stroke="black" stroke-dasharray="1,5" points="8,-70 8,-268 670,-268 670,-70 8,-70"/>
</g>
<g id="clust2" class="cluster">
<title>cluster_SharedModule_declarations</title>
<polygon fill="none" stroke="black" points="25,-78 25,-130 655,-130 655,-78 25,-78"/>
</g>
<g id="clust8" class="cluster">
<title>cluster_SharedModule_exports</title>
<polygon fill="none" stroke="black" points="16,-208 16,-260 662,-260 662,-208 16,-208"/>
</g>
<!-- FooterComponent -->
<g id="node1" class="node">
<title>FooterComponent</title>
<polygon fill="#ffffb3" stroke="black" points="646.88,-122 529.12,-122 529.12,-86 646.88,-86 646.88,-122"/>
<text text-anchor="middle" x="588" y="-99.8" font-family="Times,serif" font-size="14.00">FooterComponent</text>
</g>
<!-- SharedModule -->
<g id="node5" class="node">
<title>SharedModule</title>
<polygon fill="#8dd3c7" stroke="black" points="341.42,-187 338.42,-191 317.42,-191 314.42,-187 242.58,-187 242.58,-151 341.42,-151 341.42,-187"/>
<text text-anchor="middle" x="292" y="-164.8" font-family="Times,serif" font-size="14.00">SharedModule</text>
</g>
<!-- FooterComponent&#45;&gt;SharedModule -->
<g id="edge1" class="edge">
<title>FooterComponent&#45;&gt;SharedModule</title>
<path fill="none" stroke="black" d="M608.73,-122.27C608.73,-140.56 608.73,-166 608.73,-166 608.73,-166 351.49,-166 351.49,-166"/>
<polygon fill="black" stroke="black" points="351.49,-162.5 341.49,-166 351.49,-169.5 351.49,-162.5"/>
</g>
<!-- NavbarComponent -->
<g id="node2" class="node">
<title>NavbarComponent</title>
<polygon fill="#ffffb3" stroke="black" points="511.03,-122 388.97,-122 388.97,-86 511.03,-86 511.03,-122"/>
<text text-anchor="middle" x="450" y="-99.8" font-family="Times,serif" font-size="14.00">NavbarComponent</text>
</g>
<!-- NavbarComponent&#45;&gt;SharedModule -->
<g id="edge2" class="edge">
<title>NavbarComponent&#45;&gt;SharedModule</title>
<path fill="none" stroke="black" d="M470.42,-122.01C470.42,-138.05 470.42,-159 470.42,-159 470.42,-159 351.23,-159 351.23,-159"/>
<polygon fill="black" stroke="black" points="351.23,-155.5 341.23,-159 351.23,-162.5 351.23,-155.5"/>
</g>
<!-- SidebarCarritoComponent -->
<g id="node3" class="node">
<title>SidebarCarritoComponent</title>
<polygon fill="#ffffb3" stroke="black" points="370.75,-122 207.25,-122 207.25,-86 370.75,-86 370.75,-122"/>
<text text-anchor="middle" x="289" y="-99.8" font-family="Times,serif" font-size="14.00">SidebarCarritoComponent</text>
</g>
<!-- SidebarCarritoComponent&#45;&gt;SharedModule -->
<g id="edge3" class="edge">
<title>SidebarCarritoComponent&#45;&gt;SharedModule</title>
<path fill="none" stroke="black" d="M292,-122.11C292,-122.11 292,-140.99 292,-140.99"/>
<polygon fill="black" stroke="black" points="288.5,-140.99 292,-150.99 295.5,-140.99 288.5,-140.99"/>
</g>
<!-- SidebarMenuComponent -->
<g id="node4" class="node">
<title>SidebarMenuComponent</title>
<polygon fill="#ffffb3" stroke="black" points="189.25,-122 32.75,-122 32.75,-86 189.25,-86 189.25,-122"/>
<text text-anchor="middle" x="111" y="-99.8" font-family="Times,serif" font-size="14.00">SidebarMenuComponent</text>
</g>
<!-- SidebarMenuComponent&#45;&gt;SharedModule -->
<g id="edge4" class="edge">
<title>SidebarMenuComponent&#45;&gt;SharedModule</title>
<path fill="none" stroke="black" d="M133.63,-122.02C133.63,-139.37 133.63,-163 133.63,-163 133.63,-163 232.76,-163 232.76,-163"/>
<polygon fill="black" stroke="black" points="232.76,-166.5 242.76,-163 232.76,-159.5 232.76,-166.5"/>
</g>
<!-- FooterComponent  -->
<g id="node6" class="node">
<title>FooterComponent </title>
<polygon fill="#fb8072" stroke="black" points="653.88,-252 532.12,-252 532.12,-216 653.88,-216 653.88,-252"/>
<text text-anchor="middle" x="593" y="-229.8" font-family="Times,serif" font-size="14.00">FooterComponent </text>
</g>
<!-- SharedModule&#45;&gt;FooterComponent  -->
<g id="edge5" class="edge">
<title>SharedModule&#45;&gt;FooterComponent </title>
<path fill="none" stroke="black" stroke-dasharray="5,2" d="M341.47,-173C421.51,-173 570.52,-173 570.52,-173 570.52,-173 570.52,-205.7 570.52,-205.7"/>
<polygon fill="black" stroke="black" points="567.02,-205.7 570.52,-215.7 574.02,-205.7 567.02,-205.7"/>
</g>
<!-- NavbarComponent  -->
<g id="node7" class="node">
<title>NavbarComponent </title>
<polygon fill="#fb8072" stroke="black" points="514.03,-252 387.97,-252 387.97,-216 514.03,-216 514.03,-252"/>
<text text-anchor="middle" x="451" y="-229.8" font-family="Times,serif" font-size="14.00">NavbarComponent </text>
</g>
<!-- SharedModule&#45;&gt;NavbarComponent  -->
<g id="edge6" class="edge">
<title>SharedModule&#45;&gt;NavbarComponent </title>
<path fill="none" stroke="black" stroke-dasharray="5,2" d="M341.28,-180C380.76,-180 429.58,-180 429.58,-180 429.58,-180 429.58,-205.72 429.58,-205.72"/>
<polygon fill="black" stroke="black" points="426.08,-205.72 429.58,-215.72 433.08,-205.72 426.08,-205.72"/>
</g>
<!-- SidebarCarritoComponent  -->
<g id="node8" class="node">
<title>SidebarCarritoComponent </title>
<polygon fill="#fb8072" stroke="black" points="369.75,-252 202.25,-252 202.25,-216 369.75,-216 369.75,-252"/>
<text text-anchor="middle" x="286" y="-229.8" font-family="Times,serif" font-size="14.00">SidebarCarritoComponent </text>
</g>
<!-- SharedModule&#45;&gt;SidebarCarritoComponent  -->
<g id="edge7" class="edge">
<title>SharedModule&#45;&gt;SidebarCarritoComponent </title>
<path fill="none" stroke="black" stroke-dasharray="5,2" d="M292,-187.11C292,-187.11 292,-205.99 292,-205.99"/>
<polygon fill="black" stroke="black" points="288.5,-205.99 292,-215.99 295.5,-205.99 288.5,-205.99"/>
</g>
<!-- SidebarMenuComponent  -->
<g id="node9" class="node">
<title>SidebarMenuComponent </title>
<polygon fill="#fb8072" stroke="black" points="184.25,-252 23.75,-252 23.75,-216 184.25,-216 184.25,-252"/>
<text text-anchor="middle" x="104" y="-229.8" font-family="Times,serif" font-size="14.00">SidebarMenuComponent </text>
</g>
<!-- SharedModule&#45;&gt;SidebarMenuComponent  -->
<g id="edge8" class="edge">
<title>SharedModule&#45;&gt;SidebarMenuComponent </title>
<path fill="none" stroke="black" stroke-dasharray="5,2" d="M242.76,-175C181.01,-175 83.12,-175 83.12,-175 83.12,-175 83.12,-205.98 83.12,-205.98"/>
<polygon fill="black" stroke="black" points="79.62,-205.98 83.12,-215.98 86.62,-205.98 79.62,-205.98"/>
</g>
</g>
</svg>
