<?xml version="1.0" encoding="UTF-8" standalone="no"?>
<!DOCTYPE svg PUBLIC "-//W3C//DTD SVG 1.1//EN"
 "http://www.w3.org/Graphics/SVG/1.1/DTD/svg11.dtd">
<!-- Generated by graphviz version 2.47.0 (20210316.0004)
 -->
<!-- Title: dependencies Pages: 1 -->
<svg width="2677pt" height="284pt"
 viewBox="0.00 0.00 2677.00 284.00" xmlns="http://www.w3.org/2000/svg" xmlns:xlink="http://www.w3.org/1999/xlink">
<g id="graph0" class="graph" transform="scale(1 1) rotate(0) translate(4 280)">
<title>dependencies</title>
<polygon fill="white" stroke="transparent" points="-4,4 -4,-280 2673,-280 2673,4 -4,4"/>
<text text-anchor="start" x="1313.51" y="-42.4" font-family="Times-12" font-weight="bold" font-size="14.00">Legend</text>
<polygon fill="#ffffb3" stroke="transparent" points="1100.5,-10 1100.5,-30 1120.5,-30 1120.5,-10 1100.5,-10"/>
<text text-anchor="start" x="1124.13" y="-15.4" font-family="Times-12" font-size="14.00"> &#160;Declarations</text>
<polygon fill="#8dd3c7" stroke="transparent" points="1213.5,-10 1213.5,-30 1233.5,-30 1233.5,-10 1213.5,-10"/>
<text text-anchor="start" x="1237.23" y="-15.4" font-family="Times-12" font-size="14.00"> &#160;Module</text>
<polygon fill="#80b1d3" stroke="transparent" points="1299.5,-10 1299.5,-30 1319.5,-30 1319.5,-10 1299.5,-10"/>
<text text-anchor="start" x="1323.28" y="-15.4" font-family="Times-12" font-size="14.00"> &#160;Bootstrap</text>
<polygon fill="#fdb462" stroke="transparent" points="1396.5,-10 1396.5,-30 1416.5,-30 1416.5,-10 1396.5,-10"/>
<text text-anchor="start" x="1420.17" y="-15.4" font-family="Times-12" font-size="14.00"> &#160;Providers</text>
<polygon fill="#fb8072" stroke="transparent" points="1492.5,-10 1492.5,-30 1512.5,-30 1512.5,-10 1492.5,-10"/>
<text text-anchor="start" x="1516.23" y="-15.4" font-family="Times-12" font-size="14.00"> &#160;Exports</text>
<g id="clust1" class="cluster">
<title>cluster_AppModule</title>
<polygon fill="none" stroke="black" stroke-dasharray="1,5" points="8,-70 8,-268 2661,-268 2661,-70 8,-70"/>
</g>
<g id="clust2" class="cluster">
<title>cluster_AppModule_declarations</title>
<polygon fill="none" stroke="black" points="619,-78 619,-130 2653,-130 2653,-78 619,-78"/>
</g>
<g id="clust18" class="cluster">
<title>cluster_AppModule_providers</title>
<polygon fill="none" stroke="black" points="285,-78 285,-130 611,-130 611,-78 285,-78"/>
</g>
<g id="clust15" class="cluster">
<title>cluster_AppModule_imports</title>
<polygon fill="none" stroke="black" points="16,-78 16,-130 277,-130 277,-78 16,-78"/>
</g>
<g id="clust17" class="cluster">
<title>cluster_AppModule_bootstrap</title>
<polygon fill="none" stroke="black" points="1240,-208 1240,-260 1364,-260 1364,-208 1240,-208"/>
</g>
<!-- AppComponent -->
<g id="node1" class="node">
<title>AppComponent</title>
<polygon fill="#ffffb3" stroke="black" points="2644.94,-122 2539.06,-122 2539.06,-86 2644.94,-86 2644.94,-122"/>
<text text-anchor="middle" x="2592" y="-99.8" font-family="Times,serif" font-size="14.00">AppComponent</text>
</g>
<!-- AppModule -->
<g id="node13" class="node">
<title>AppModule</title>
<polygon fill="#8dd3c7" stroke="black" points="1343.66,-187 1340.66,-191 1319.66,-191 1316.66,-187 1260.34,-187 1260.34,-151 1343.66,-151 1343.66,-187"/>
<text text-anchor="middle" x="1302" y="-164.8" font-family="Times,serif" font-size="14.00">AppModule</text>
</g>
<!-- AppComponent&#45;&gt;AppModule -->
<g id="edge1" class="edge">
<title>AppComponent&#45;&gt;AppModule</title>
<path fill="none" stroke="black" d="M2592,-122.32C2592,-145.66 2592,-183 2592,-183 2592,-183 1353.82,-183 1353.82,-183"/>
<polygon fill="black" stroke="black" points="1353.82,-179.5 1343.82,-183 1353.82,-186.5 1353.82,-179.5"/>
</g>
<!-- CardListBookComponent -->
<g id="node2" class="node">
<title>CardListBookComponent</title>
<polygon fill="#ffffb3" stroke="black" points="2521.16,-122 2360.84,-122 2360.84,-86 2521.16,-86 2521.16,-122"/>
<text text-anchor="middle" x="2441" y="-99.8" font-family="Times,serif" font-size="14.00">CardListBookComponent</text>
</g>
<!-- CardListBookComponent&#45;&gt;AppModule -->
<g id="edge2" class="edge">
<title>CardListBookComponent&#45;&gt;AppModule</title>
<path fill="none" stroke="black" d="M2441,-122.29C2441,-144.21 2441,-178 2441,-178 2441,-178 1353.89,-178 1353.89,-178"/>
<polygon fill="black" stroke="black" points="1353.89,-174.5 1343.89,-178 1353.89,-181.5 1353.89,-174.5"/>
</g>
<!-- CardListComponent -->
<g id="node3" class="node">
<title>CardListComponent</title>
<polygon fill="#ffffb3" stroke="black" points="2343.32,-122 2212.68,-122 2212.68,-86 2343.32,-86 2343.32,-122"/>
<text text-anchor="middle" x="2278" y="-99.8" font-family="Times,serif" font-size="14.00">CardListComponent</text>
</g>
<!-- CardListComponent&#45;&gt;AppModule -->
<g id="edge3" class="edge">
<title>CardListComponent&#45;&gt;AppModule</title>
<path fill="none" stroke="black" d="M2278,-122.03C2278,-142.77 2278,-174 2278,-174 2278,-174 1353.94,-174 1353.94,-174"/>
<polygon fill="black" stroke="black" points="1353.94,-170.5 1343.94,-174 1353.94,-177.5 1353.94,-170.5"/>
</g>
<!-- CardListMoviesComponent -->
<g id="node4" class="node">
<title>CardListMoviesComponent</title>
<polygon fill="#ffffb3" stroke="black" points="2195.32,-122 2022.68,-122 2022.68,-86 2195.32,-86 2195.32,-122"/>
<text text-anchor="middle" x="2109" y="-99.8" font-family="Times,serif" font-size="14.00">CardListMoviesComponent</text>
</g>
<!-- CardListMoviesComponent&#45;&gt;AppModule -->
<g id="edge4" class="edge">
<title>CardListMoviesComponent&#45;&gt;AppModule</title>
<path fill="none" stroke="black" d="M2109,-122.11C2109,-141.34 2109,-169 2109,-169 2109,-169 1353.69,-169 1353.69,-169"/>
<polygon fill="black" stroke="black" points="1353.69,-165.5 1343.69,-169 1353.69,-172.5 1353.69,-165.5"/>
</g>
<!-- CardListPotionsComponent -->
<g id="node5" class="node">
<title>CardListPotionsComponent</title>
<polygon fill="#ffffb3" stroke="black" points="2005.33,-122 1832.67,-122 1832.67,-86 2005.33,-86 2005.33,-122"/>
<text text-anchor="middle" x="1919" y="-99.8" font-family="Times,serif" font-size="14.00">CardListPotionsComponent</text>
</g>
<!-- CardListPotionsComponent&#45;&gt;AppModule -->
<g id="edge5" class="edge">
<title>CardListPotionsComponent&#45;&gt;AppModule</title>
<path fill="none" stroke="black" d="M1919,-122.3C1919,-140.27 1919,-165 1919,-165 1919,-165 1353.92,-165 1353.92,-165"/>
<polygon fill="black" stroke="black" points="1353.92,-161.5 1343.92,-165 1353.92,-168.5 1353.92,-161.5"/>
</g>
<!-- CardListSpellsComponent -->
<g id="node6" class="node">
<title>CardListSpellsComponent</title>
<polygon fill="#ffffb3" stroke="black" points="1815.05,-122 1650.95,-122 1650.95,-86 1815.05,-86 1815.05,-122"/>
<text text-anchor="middle" x="1733" y="-99.8" font-family="Times,serif" font-size="14.00">CardListSpellsComponent</text>
</g>
<!-- CardListSpellsComponent&#45;&gt;AppModule -->
<g id="edge6" class="edge">
<title>CardListSpellsComponent&#45;&gt;AppModule</title>
<path fill="none" stroke="black" d="M1733,-122.03C1733,-138.4 1733,-160 1733,-160 1733,-160 1353.72,-160 1353.72,-160"/>
<polygon fill="black" stroke="black" points="1353.72,-156.5 1343.72,-160 1353.72,-163.5 1353.72,-156.5"/>
</g>
<!-- FormLogginComponent -->
<g id="node7" class="node">
<title>FormLogginComponent</title>
<polygon fill="#ffffb3" stroke="black" points="1633.11,-122 1480.89,-122 1480.89,-86 1633.11,-86 1633.11,-122"/>
<text text-anchor="middle" x="1557" y="-99.8" font-family="Times,serif" font-size="14.00">FormLogginComponent</text>
</g>
<!-- FormLogginComponent&#45;&gt;AppModule -->
<g id="edge7" class="edge">
<title>FormLogginComponent&#45;&gt;AppModule</title>
<path fill="none" stroke="black" d="M1557,-122.19C1557,-137.18 1557,-156 1557,-156 1557,-156 1353.82,-156 1353.82,-156"/>
<polygon fill="black" stroke="black" points="1353.82,-152.5 1343.82,-156 1353.82,-159.5 1353.82,-152.5"/>
</g>
<!-- FormPedidoComponent -->
<g id="node8" class="node">
<title>FormPedidoComponent</title>
<polygon fill="#ffffb3" stroke="black" points="1463.05,-122 1312.95,-122 1312.95,-86 1463.05,-86 1463.05,-122"/>
<text text-anchor="middle" x="1388" y="-99.8" font-family="Times,serif" font-size="14.00">FormPedidoComponent</text>
</g>
<!-- FormPedidoComponent&#45;&gt;AppModule -->
<g id="edge8" class="edge">
<title>FormPedidoComponent&#45;&gt;AppModule</title>
<path fill="none" stroke="black" d="M1328.28,-122.11C1328.28,-122.11 1328.28,-140.99 1328.28,-140.99"/>
<polygon fill="black" stroke="black" points="1324.78,-140.99 1328.28,-150.99 1331.78,-140.99 1324.78,-140.99"/>
</g>
<!-- FormRegisterComponent -->
<g id="node9" class="node">
<title>FormRegisterComponent</title>
<polygon fill="#ffffb3" stroke="black" points="1295.32,-122 1136.68,-122 1136.68,-86 1295.32,-86 1295.32,-122"/>
<text text-anchor="middle" x="1216" y="-99.8" font-family="Times,serif" font-size="14.00">FormRegisterComponent</text>
</g>
<!-- FormRegisterComponent&#45;&gt;AppModule -->
<g id="edge9" class="edge">
<title>FormRegisterComponent&#45;&gt;AppModule</title>
<path fill="none" stroke="black" d="M1277.67,-122.11C1277.67,-122.11 1277.67,-140.99 1277.67,-140.99"/>
<polygon fill="black" stroke="black" points="1274.17,-140.99 1277.67,-150.99 1281.17,-140.99 1274.17,-140.99"/>
</g>
<!-- ListPedidoComponent -->
<g id="node10" class="node">
<title>ListPedidoComponent</title>
<polygon fill="#ffffb3" stroke="black" points="1119,-122 977,-122 977,-86 1119,-86 1119,-122"/>
<text text-anchor="middle" x="1048" y="-99.8" font-family="Times,serif" font-size="14.00">ListPedidoComponent</text>
</g>
<!-- ListPedidoComponent&#45;&gt;AppModule -->
<g id="edge10" class="edge">
<title>ListPedidoComponent&#45;&gt;AppModule</title>
<path fill="none" stroke="black" d="M1048,-122.19C1048,-137.18 1048,-156 1048,-156 1048,-156 1250.34,-156 1250.34,-156"/>
<polygon fill="black" stroke="black" points="1250.34,-159.5 1260.34,-156 1250.34,-152.5 1250.34,-159.5"/>
</g>
<!-- PagesWikiBookComponent -->
<g id="node11" class="node">
<title>PagesWikiBookComponent</title>
<polygon fill="#ffffb3" stroke="black" points="959.32,-122 786.68,-122 786.68,-86 959.32,-86 959.32,-122"/>
<text text-anchor="middle" x="873" y="-99.8" font-family="Times,serif" font-size="14.00">PagesWikiBookComponent</text>
</g>
<!-- PagesWikiBookComponent&#45;&gt;AppModule -->
<g id="edge11" class="edge">
<title>PagesWikiBookComponent&#45;&gt;AppModule</title>
<path fill="none" stroke="black" d="M873,-122.03C873,-138.4 873,-160 873,-160 873,-160 1250.08,-160 1250.08,-160"/>
<polygon fill="black" stroke="black" points="1250.08,-163.5 1260.08,-160 1250.08,-156.5 1250.08,-163.5"/>
</g>
<!-- PagesWikiComponent -->
<g id="node12" class="node">
<title>PagesWikiComponent</title>
<polygon fill="#ffffb3" stroke="black" points="768.98,-122 627.02,-122 627.02,-86 768.98,-86 768.98,-122"/>
<text text-anchor="middle" x="698" y="-99.8" font-family="Times,serif" font-size="14.00">PagesWikiComponent</text>
</g>
<!-- PagesWikiComponent&#45;&gt;AppModule -->
<g id="edge12" class="edge">
<title>PagesWikiComponent&#45;&gt;AppModule</title>
<path fill="none" stroke="black" d="M698,-122.3C698,-140.27 698,-165 698,-165 698,-165 1250.01,-165 1250.01,-165"/>
<polygon fill="black" stroke="black" points="1250.01,-168.5 1260.01,-165 1250.01,-161.5 1250.01,-168.5"/>
</g>
<!-- AppComponent  -->
<g id="node16" class="node">
<title>AppComponent </title>
<polygon fill="#80b1d3" stroke="black" points="1356.44,-252 1247.56,-252 1247.56,-216 1356.44,-216 1356.44,-252"/>
<text text-anchor="middle" x="1302" y="-229.8" font-family="Times,serif" font-size="14.00">AppComponent </text>
</g>
<!-- AppModule&#45;&gt;AppComponent  -->
<g id="edge15" class="edge">
<title>AppModule&#45;&gt;AppComponent </title>
<path fill="none" stroke="black" stroke-dasharray="1,5" d="M1302,-187.11C1302,-187.11 1302,-205.99 1302,-205.99"/>
<polygon fill="black" stroke="black" points="1298.5,-205.99 1302,-215.99 1305.5,-205.99 1298.5,-205.99"/>
</g>
<!-- AppRoutingModule -->
<g id="node14" class="node">
<title>AppRoutingModule</title>
<polygon fill="#8dd3c7" stroke="black" points="269.27,-122 266.27,-126 245.27,-126 242.27,-122 140.73,-122 140.73,-86 269.27,-86 269.27,-122"/>
<text text-anchor="middle" x="205" y="-99.8" font-family="Times,serif" font-size="14.00">AppRoutingModule</text>
</g>
<!-- AppRoutingModule&#45;&gt;AppModule -->
<g id="edge13" class="edge">
<title>AppRoutingModule&#45;&gt;AppModule</title>
<path fill="none" stroke="black" d="M205,-122.29C205,-144.21 205,-178 205,-178 205,-178 1250.34,-178 1250.34,-178"/>
<polygon fill="black" stroke="black" points="1250.34,-181.5 1260.34,-178 1250.34,-174.5 1250.34,-181.5"/>
</g>
<!-- SharedModule -->
<g id="node15" class="node">
<title>SharedModule</title>
<polygon fill="#8dd3c7" stroke="black" points="122.42,-122 119.42,-126 98.42,-126 95.42,-122 23.58,-122 23.58,-86 122.42,-86 122.42,-122"/>
<text text-anchor="middle" x="73" y="-99.8" font-family="Times,serif" font-size="14.00">SharedModule</text>
</g>
<!-- SharedModule&#45;&gt;AppModule -->
<g id="edge14" class="edge">
<title>SharedModule&#45;&gt;AppModule</title>
<path fill="none" stroke="black" d="M73,-122.32C73,-145.66 73,-183 73,-183 73,-183 1250.05,-183 1250.05,-183"/>
<polygon fill="black" stroke="black" points="1250.05,-186.5 1260.05,-183 1250.05,-179.5 1250.05,-186.5"/>
</g>
<!-- AuthService -->
<g id="node17" class="node">
<title>AuthService</title>
<ellipse fill="#fdb462" stroke="black" cx="544" cy="-104" rx="59.11" ry="18"/>
<text text-anchor="middle" x="544" y="-99.8" font-family="Times,serif" font-size="14.00">AuthService</text>
</g>
<!-- AuthService&#45;&gt;AppModule -->
<g id="edge16" class="edge">
<title>AuthService&#45;&gt;AppModule</title>
<path fill="none" stroke="black" d="M544,-122.11C544,-141.34 544,-169 544,-169 544,-169 1250.17,-169 1250.17,-169"/>
<polygon fill="black" stroke="black" points="1250.17,-172.5 1260.17,-169 1250.17,-165.5 1250.17,-172.5"/>
</g>
<!-- UserServiceService -->
<g id="node18" class="node">
<title>UserServiceService</title>
<ellipse fill="#fdb462" stroke="black" cx="380" cy="-104" rx="87.35" ry="18"/>
<text text-anchor="middle" x="380" y="-99.8" font-family="Times,serif" font-size="14.00">UserServiceService</text>
</g>
<!-- UserServiceService&#45;&gt;AppModule -->
<g id="edge17" class="edge">
<title>UserServiceService&#45;&gt;AppModule</title>
<path fill="none" stroke="black" d="M380,-122.03C380,-142.77 380,-174 380,-174 380,-174 1250.29,-174 1250.29,-174"/>
<polygon fill="black" stroke="black" points="1250.29,-177.5 1260.29,-174 1250.29,-170.5 1250.29,-177.5"/>
</g>
</g>
</svg>
