<?xml version="1.0" encoding="UTF-8" standalone="no"?>
<!DOCTYPE svg PUBLIC "-//W3C//DTD SVG 1.1//EN"
 "http://www.w3.org/Graphics/SVG/1.1/DTD/svg11.dtd">
<!-- Generated by graphviz version 2.47.0 (20210316.0004)
 -->
<!-- Title: dependencies Pages: 1 -->
<svg width="1845pt" height="284pt"
 viewBox="0.00 0.00 1845.00 284.00" xmlns="http://www.w3.org/2000/svg" xmlns:xlink="http://www.w3.org/1999/xlink">
<g id="graph0" class="graph" transform="scale(1 1) rotate(0) translate(4 280)">
<title>dependencies</title>
<polygon fill="white" stroke="transparent" points="-4,4 -4,-280 1841,-280 1841,4 -4,4"/>
<text text-anchor="start" x="897.51" y="-42.4" font-family="Times-12" font-weight="bold" font-size="14.00">Legend</text>
<polygon fill="#ffffb3" stroke="transparent" points="684.5,-10 684.5,-30 704.5,-30 704.5,-10 684.5,-10"/>
<text text-anchor="start" x="708.13" y="-15.4" font-family="Times-12" font-size="14.00"> &#160;Declarations</text>
<polygon fill="#8dd3c7" stroke="transparent" points="797.5,-10 797.5,-30 817.5,-30 817.5,-10 797.5,-10"/>
<text text-anchor="start" x="821.23" y="-15.4" font-family="Times-12" font-size="14.00"> &#160;Module</text>
<polygon fill="#80b1d3" stroke="transparent" points="883.5,-10 883.5,-30 903.5,-30 903.5,-10 883.5,-10"/>
<text text-anchor="start" x="907.28" y="-15.4" font-family="Times-12" font-size="14.00"> &#160;Bootstrap</text>
<polygon fill="#fdb462" stroke="transparent" points="980.5,-10 980.5,-30 1000.5,-30 1000.5,-10 980.5,-10"/>
<text text-anchor="start" x="1004.17" y="-15.4" font-family="Times-12" font-size="14.00"> &#160;Providers</text>
<polygon fill="#fb8072" stroke="transparent" points="1076.5,-10 1076.5,-30 1096.5,-30 1096.5,-10 1076.5,-10"/>
<text text-anchor="start" x="1100.23" y="-15.4" font-family="Times-12" font-size="14.00"> &#160;Exports</text>
<g id="clust1" class="cluster">
<title>cluster_AppModule</title>
<polygon fill="none" stroke="black" stroke-dasharray="1,5" points="8,-70 8,-268 1829,-268 1829,-70 8,-70"/>
</g>
<g id="clust2" class="cluster">
<title>cluster_AppModule_declarations</title>
<polygon fill="none" stroke="black" points="285,-78 285,-130 1821,-130 1821,-78 285,-78"/>
</g>
<g id="clust12" class="cluster">
<title>cluster_AppModule_imports</title>
<polygon fill="none" stroke="black" points="16,-78 16,-130 277,-130 277,-78 16,-78"/>
</g>
<g id="clust14" class="cluster">
<title>cluster_AppModule_bootstrap</title>
<polygon fill="none" stroke="black" points="839,-208 839,-260 963,-260 963,-208 839,-208"/>
</g>
<!-- AppComponent -->
<g id="node1" class="node">
<title>AppComponent</title>
<polygon fill="#ffffb3" stroke="black" points="1812.94,-122 1707.06,-122 1707.06,-86 1812.94,-86 1812.94,-122"/>
<text text-anchor="middle" x="1760" y="-99.8" font-family="Times,serif" font-size="14.00">AppComponent</text>
</g>
<!-- AppModule -->
<g id="node10" class="node">
<title>AppModule</title>
<polygon fill="#8dd3c7" stroke="black" points="942.66,-187 939.66,-191 918.66,-191 915.66,-187 859.34,-187 859.34,-151 942.66,-151 942.66,-187"/>
<text text-anchor="middle" x="901" y="-164.8" font-family="Times,serif" font-size="14.00">AppModule</text>
</g>
<!-- AppComponent&#45;&gt;AppModule -->
<g id="edge1" class="edge">
<title>AppComponent&#45;&gt;AppModule</title>
<path fill="none" stroke="black" d="M1760,-122.25C1760,-145.02 1760,-181 1760,-181 1760,-181 952.72,-181 952.72,-181"/>
<polygon fill="black" stroke="black" points="952.72,-177.5 942.72,-181 952.72,-184.5 952.72,-177.5"/>
</g>
<!-- CardListBookComponent -->
<g id="node2" class="node">
<title>CardListBookComponent</title>
<polygon fill="#ffffb3" stroke="black" points="1689.16,-122 1528.84,-122 1528.84,-86 1689.16,-86 1689.16,-122"/>
<text text-anchor="middle" x="1609" y="-99.8" font-family="Times,serif" font-size="14.00">CardListBookComponent</text>
</g>
<!-- CardListBookComponent&#45;&gt;AppModule -->
<g id="edge2" class="edge">
<title>CardListBookComponent&#45;&gt;AppModule</title>
<path fill="none" stroke="black" d="M1609,-122.28C1609,-143.32 1609,-175 1609,-175 1609,-175 952.91,-175 952.91,-175"/>
<polygon fill="black" stroke="black" points="952.91,-171.5 942.91,-175 952.91,-178.5 952.91,-171.5"/>
</g>
<!-- CardListComponent -->
<g id="node3" class="node">
<title>CardListComponent</title>
<polygon fill="#ffffb3" stroke="black" points="1511.32,-122 1380.68,-122 1380.68,-86 1511.32,-86 1511.32,-122"/>
<text text-anchor="middle" x="1446" y="-99.8" font-family="Times,serif" font-size="14.00">CardListComponent</text>
</g>
<!-- CardListComponent&#45;&gt;AppModule -->
<g id="edge3" class="edge">
<title>CardListComponent&#45;&gt;AppModule</title>
<path fill="none" stroke="black" d="M1446,-122.11C1446,-141.34 1446,-169 1446,-169 1446,-169 952.86,-169 952.86,-169"/>
<polygon fill="black" stroke="black" points="952.86,-165.5 942.86,-169 952.86,-172.5 952.86,-165.5"/>
</g>
<!-- CardListMoviesComponent -->
<g id="node4" class="node">
<title>CardListMoviesComponent</title>
<polygon fill="#ffffb3" stroke="black" points="1363.32,-122 1190.68,-122 1190.68,-86 1363.32,-86 1363.32,-122"/>
<text text-anchor="middle" x="1277" y="-99.8" font-family="Times,serif" font-size="14.00">CardListMoviesComponent</text>
</g>
<!-- CardListMoviesComponent&#45;&gt;AppModule -->
<g id="edge4" class="edge">
<title>CardListMoviesComponent&#45;&gt;AppModule</title>
<path fill="none" stroke="black" d="M1277,-122.02C1277,-139.37 1277,-163 1277,-163 1277,-163 952.68,-163 952.68,-163"/>
<polygon fill="black" stroke="black" points="952.68,-159.5 942.68,-163 952.68,-166.5 952.68,-159.5"/>
</g>
<!-- CardListPotionsComponent -->
<g id="node5" class="node">
<title>CardListPotionsComponent</title>
<polygon fill="#ffffb3" stroke="black" points="1173.33,-122 1000.67,-122 1000.67,-86 1173.33,-86 1173.33,-122"/>
<text text-anchor="middle" x="1087" y="-99.8" font-family="Times,serif" font-size="14.00">CardListPotionsComponent</text>
</g>
<!-- CardListPotionsComponent&#45;&gt;AppModule -->
<g id="edge5" class="edge">
<title>CardListPotionsComponent&#45;&gt;AppModule</title>
<path fill="none" stroke="black" d="M1087,-122.24C1087,-137.57 1087,-157 1087,-157 1087,-157 952.74,-157 952.74,-157"/>
<polygon fill="black" stroke="black" points="952.74,-153.5 942.74,-157 952.74,-160.5 952.74,-153.5"/>
</g>
<!-- CardListSpellsComponent -->
<g id="node6" class="node">
<title>CardListSpellsComponent</title>
<polygon fill="#ffffb3" stroke="black" points="983.05,-122 818.95,-122 818.95,-86 983.05,-86 983.05,-122"/>
<text text-anchor="middle" x="901" y="-99.8" font-family="Times,serif" font-size="14.00">CardListSpellsComponent</text>
</g>
<!-- CardListSpellsComponent&#45;&gt;AppModule -->
<g id="edge6" class="edge">
<title>CardListSpellsComponent&#45;&gt;AppModule</title>
<path fill="none" stroke="black" d="M901,-122.11C901,-122.11 901,-140.99 901,-140.99"/>
<polygon fill="black" stroke="black" points="897.5,-140.99 901,-150.99 904.5,-140.99 897.5,-140.99"/>
</g>
<!-- FormRegisterComponent -->
<g id="node7" class="node">
<title>FormRegisterComponent</title>
<polygon fill="#ffffb3" stroke="black" points="801.32,-122 642.68,-122 642.68,-86 801.32,-86 801.32,-122"/>
<text text-anchor="middle" x="722" y="-99.8" font-family="Times,serif" font-size="14.00">FormRegisterComponent</text>
</g>
<!-- FormRegisterComponent&#45;&gt;AppModule -->
<g id="edge7" class="edge">
<title>FormRegisterComponent&#45;&gt;AppModule</title>
<path fill="none" stroke="black" d="M722,-122.24C722,-137.57 722,-157 722,-157 722,-157 849.03,-157 849.03,-157"/>
<polygon fill="black" stroke="black" points="849.03,-160.5 859.03,-157 849.03,-153.5 849.03,-160.5"/>
</g>
<!-- PagesWikiBookComponent -->
<g id="node8" class="node">
<title>PagesWikiBookComponent</title>
<polygon fill="#ffffb3" stroke="black" points="625.32,-122 452.68,-122 452.68,-86 625.32,-86 625.32,-122"/>
<text text-anchor="middle" x="539" y="-99.8" font-family="Times,serif" font-size="14.00">PagesWikiBookComponent</text>
</g>
<!-- PagesWikiBookComponent&#45;&gt;AppModule -->
<g id="edge8" class="edge">
<title>PagesWikiBookComponent&#45;&gt;AppModule</title>
<path fill="none" stroke="black" d="M539,-122.02C539,-139.37 539,-163 539,-163 539,-163 849.12,-163 849.12,-163"/>
<polygon fill="black" stroke="black" points="849.12,-166.5 859.12,-163 849.12,-159.5 849.12,-166.5"/>
</g>
<!-- PagesWikiComponent -->
<g id="node9" class="node">
<title>PagesWikiComponent</title>
<polygon fill="#ffffb3" stroke="black" points="434.98,-122 293.02,-122 293.02,-86 434.98,-86 434.98,-122"/>
<text text-anchor="middle" x="364" y="-99.8" font-family="Times,serif" font-size="14.00">PagesWikiComponent</text>
</g>
<!-- PagesWikiComponent&#45;&gt;AppModule -->
<g id="edge9" class="edge">
<title>PagesWikiComponent&#45;&gt;AppModule</title>
<path fill="none" stroke="black" d="M364,-122.11C364,-141.34 364,-169 364,-169 364,-169 849.31,-169 849.31,-169"/>
<polygon fill="black" stroke="black" points="849.31,-172.5 859.31,-169 849.31,-165.5 849.31,-172.5"/>
</g>
<!-- AppComponent  -->
<g id="node13" class="node">
<title>AppComponent </title>
<polygon fill="#80b1d3" stroke="black" points="955.44,-252 846.56,-252 846.56,-216 955.44,-216 955.44,-252"/>
<text text-anchor="middle" x="901" y="-229.8" font-family="Times,serif" font-size="14.00">AppComponent </text>
</g>
<!-- AppModule&#45;&gt;AppComponent  -->
<g id="edge12" class="edge">
<title>AppModule&#45;&gt;AppComponent </title>
<path fill="none" stroke="black" stroke-dasharray="1,5" d="M901,-187.11C901,-187.11 901,-205.99 901,-205.99"/>
<polygon fill="black" stroke="black" points="897.5,-205.99 901,-215.99 904.5,-205.99 897.5,-205.99"/>
</g>
<!-- AppRoutingModule -->
<g id="node11" class="node">
<title>AppRoutingModule</title>
<polygon fill="#8dd3c7" stroke="black" points="269.27,-122 266.27,-126 245.27,-126 242.27,-122 140.73,-122 140.73,-86 269.27,-86 269.27,-122"/>
<text text-anchor="middle" x="205" y="-99.8" font-family="Times,serif" font-size="14.00">AppRoutingModule</text>
</g>
<!-- AppRoutingModule&#45;&gt;AppModule -->
<g id="edge10" class="edge">
<title>AppRoutingModule&#45;&gt;AppModule</title>
<path fill="none" stroke="black" d="M205,-122.28C205,-143.32 205,-175 205,-175 205,-175 849.29,-175 849.29,-175"/>
<polygon fill="black" stroke="black" points="849.29,-178.5 859.29,-175 849.29,-171.5 849.29,-178.5"/>
</g>
<!-- SharedModule -->
<g id="node12" class="node">
<title>SharedModule</title>
<polygon fill="#8dd3c7" stroke="black" points="122.42,-122 119.42,-126 98.42,-126 95.42,-122 23.58,-122 23.58,-86 122.42,-86 122.42,-122"/>
<text text-anchor="middle" x="73" y="-99.8" font-family="Times,serif" font-size="14.00">SharedModule</text>
</g>
<!-- SharedModule&#45;&gt;AppModule -->
<g id="edge11" class="edge">
<title>SharedModule&#45;&gt;AppModule</title>
<path fill="none" stroke="black" d="M73,-122.25C73,-145.02 73,-181 73,-181 73,-181 849.09,-181 849.09,-181"/>
<polygon fill="black" stroke="black" points="849.09,-184.5 859.09,-181 849.09,-177.5 849.09,-184.5"/>
</g>
</g>
</svg>
