<?xml version="1.0" encoding="UTF-8" standalone="no"?>
<!DOCTYPE svg PUBLIC "-//W3C//DTD SVG 1.1//EN"
 "http://www.w3.org/Graphics/SVG/1.1/DTD/svg11.dtd">
<!-- Generated by graphviz version 2.47.0 (20210316.0004)
 -->
<!-- Title: dependencies Pages: 1 -->
<svg width="4129pt" height="290pt"
 viewBox="0.00 0.00 4129.00 290.00" xmlns="http://www.w3.org/2000/svg" xmlns:xlink="http://www.w3.org/1999/xlink">
<g id="graph0" class="graph" transform="scale(1 1) rotate(0) translate(4 286)">
<title>dependencies</title>
<polygon fill="white" stroke="transparent" points="-4,4 -4,-286 4125,-286 4125,4 -4,4"/>
<text text-anchor="start" x="2039.51" y="-42.4" font-family="Times-12" font-weight="bold" font-size="14.00">Legend</text>
<polygon fill="#ffffb3" stroke="transparent" points="1826.5,-10 1826.5,-30 1846.5,-30 1846.5,-10 1826.5,-10"/>
<text text-anchor="start" x="1850.13" y="-15.4" font-family="Times-12" font-size="14.00"> &#160;Declarations</text>
<polygon fill="#8dd3c7" stroke="transparent" points="1939.5,-10 1939.5,-30 1959.5,-30 1959.5,-10 1939.5,-10"/>
<text text-anchor="start" x="1963.23" y="-15.4" font-family="Times-12" font-size="14.00"> &#160;Module</text>
<polygon fill="#80b1d3" stroke="transparent" points="2025.5,-10 2025.5,-30 2045.5,-30 2045.5,-10 2025.5,-10"/>
<text text-anchor="start" x="2049.28" y="-15.4" font-family="Times-12" font-size="14.00"> &#160;Bootstrap</text>
<polygon fill="#fdb462" stroke="transparent" points="2122.5,-10 2122.5,-30 2142.5,-30 2142.5,-10 2122.5,-10"/>
<text text-anchor="start" x="2146.17" y="-15.4" font-family="Times-12" font-size="14.00"> &#160;Providers</text>
<polygon fill="#fb8072" stroke="transparent" points="2218.5,-10 2218.5,-30 2238.5,-30 2238.5,-10 2218.5,-10"/>
<text text-anchor="start" x="2242.23" y="-15.4" font-family="Times-12" font-size="14.00"> &#160;Exports</text>
<g id="clust1" class="cluster">
<title>cluster_AppModule</title>
<polygon fill="none" stroke="black" stroke-dasharray="1,5" points="8,-70 8,-274 2661,-274 2661,-70 8,-70"/>
</g>
<g id="clust2" class="cluster">
<title>cluster_AppModule_declarations</title>
<polygon fill="none" stroke="black" points="350,-78 350,-130 2384,-130 2384,-78 350,-78"/>
</g>
<g id="clust15" class="cluster">
<title>cluster_AppModule_imports</title>
<polygon fill="none" stroke="black" points="2392,-78 2392,-130 2653,-130 2653,-78 2392,-78"/>
</g>
<g id="clust17" class="cluster">
<title>cluster_AppModule_bootstrap</title>
<polygon fill="none" stroke="black" points="2058,-214 2058,-266 2182,-266 2182,-214 2058,-214"/>
</g>
<g id="clust18" class="cluster">
<title>cluster_AppModule_providers</title>
<polygon fill="none" stroke="black" points="16,-78 16,-130 342,-130 342,-78 16,-78"/>
</g>
<g id="clust25" class="cluster">
<title>cluster_AppServerModule</title>
<polygon fill="none" stroke="black" stroke-dasharray="1,5" points="3977,-146 3977,-198 4113,-198 4113,-146 3977,-146"/>
</g>
<g id="clust31" class="cluster">
<title>cluster_SharedModule</title>
<polygon fill="none" stroke="black" stroke-dasharray="1,5" points="2669,-138 2669,-206 3969,-206 3969,-138 2669,-138"/>
</g>
<g id="clust32" class="cluster">
<title>cluster_SharedModule_declarations</title>
<polygon fill="none" stroke="black" points="3331,-146 3331,-198 3961,-198 3961,-146 3331,-146"/>
</g>
<g id="clust38" class="cluster">
<title>cluster_SharedModule_exports</title>
<polygon fill="none" stroke="black" points="2677,-146 2677,-198 3323,-198 3323,-146 2677,-146"/>
</g>
<!-- AppComponent -->
<g id="node1" class="node">
<title>AppComponent</title>
<polygon fill="#ffffb3" stroke="black" points="2375.94,-122 2270.06,-122 2270.06,-86 2375.94,-86 2375.94,-122"/>
<text text-anchor="middle" x="2323" y="-99.8" font-family="Times,serif" font-size="14.00">AppComponent</text>
</g>
<!-- AppModule -->
<g id="node13" class="node">
<title>AppModule</title>
<polygon fill="#8dd3c7" stroke="black" points="1598.66,-190 1595.66,-194 1574.66,-194 1571.66,-190 1515.34,-190 1515.34,-154 1598.66,-154 1598.66,-190"/>
<text text-anchor="middle" x="1557" y="-167.8" font-family="Times,serif" font-size="14.00">AppModule</text>
</g>
<!-- AppComponent&#45;&gt;AppModule -->
<g id="edge1" class="edge">
<title>AppComponent&#45;&gt;AppModule</title>
<path fill="none" stroke="black" d="M2323,-122.03C2323,-141.58 2323,-170 2323,-170 2323,-170 1608.73,-170 1608.73,-170"/>
<polygon fill="black" stroke="black" points="1608.73,-166.5 1598.73,-170 1608.73,-173.5 1608.73,-166.5"/>
</g>
<!-- CardListBookComponent -->
<g id="node2" class="node">
<title>CardListBookComponent</title>
<polygon fill="#ffffb3" stroke="black" points="2252.16,-122 2091.84,-122 2091.84,-86 2252.16,-86 2252.16,-122"/>
<text text-anchor="middle" x="2172" y="-99.8" font-family="Times,serif" font-size="14.00">CardListBookComponent</text>
</g>
<!-- CardListBookComponent&#45;&gt;AppModule -->
<g id="edge2" class="edge">
<title>CardListBookComponent&#45;&gt;AppModule</title>
<path fill="none" stroke="black" d="M2133.07,-122.27C2133.07,-140.56 2133.07,-166 2133.07,-166 2133.07,-166 1608.89,-166 1608.89,-166"/>
<polygon fill="black" stroke="black" points="1608.89,-162.5 1598.89,-166 1608.89,-169.5 1608.89,-162.5"/>
</g>
<!-- CardListComponent -->
<g id="node3" class="node">
<title>CardListComponent</title>
<polygon fill="#ffffb3" stroke="black" points="2074.32,-122 1943.68,-122 1943.68,-86 2074.32,-86 2074.32,-122"/>
<text text-anchor="middle" x="2009" y="-99.8" font-family="Times,serif" font-size="14.00">CardListComponent</text>
</g>
<!-- CardListComponent&#45;&gt;AppModule -->
<g id="edge3" class="edge">
<title>CardListComponent&#45;&gt;AppModule</title>
<path fill="none" stroke="black" d="M2004.68,-122.03C2004.68,-139.06 2004.68,-162 2004.68,-162 2004.68,-162 1608.72,-162 1608.72,-162"/>
<polygon fill="black" stroke="black" points="1608.72,-158.5 1598.72,-162 1608.72,-165.5 1608.72,-158.5"/>
</g>
<!-- CardListMoviesComponent -->
<g id="node4" class="node">
<title>CardListMoviesComponent</title>
<polygon fill="#ffffb3" stroke="black" points="1926.32,-122 1753.68,-122 1753.68,-86 1926.32,-86 1926.32,-122"/>
<text text-anchor="middle" x="1840" y="-99.8" font-family="Times,serif" font-size="14.00">CardListMoviesComponent</text>
</g>
<!-- CardListMoviesComponent&#45;&gt;AppModule -->
<g id="edge4" class="edge">
<title>CardListMoviesComponent&#45;&gt;AppModule</title>
<path fill="none" stroke="black" d="M1840,-122.28C1840,-137.95 1840,-158 1840,-158 1840,-158 1608.76,-158 1608.76,-158"/>
<polygon fill="black" stroke="black" points="1608.76,-154.5 1598.76,-158 1608.76,-161.5 1608.76,-154.5"/>
</g>
<!-- CardListPotionsComponent -->
<g id="node5" class="node">
<title>CardListPotionsComponent</title>
<polygon fill="#ffffb3" stroke="black" points="1736.33,-122 1563.67,-122 1563.67,-86 1736.33,-86 1736.33,-122"/>
<text text-anchor="middle" x="1650" y="-99.8" font-family="Times,serif" font-size="14.00">CardListPotionsComponent</text>
</g>
<!-- CardListPotionsComponent&#45;&gt;AppModule -->
<g id="edge5" class="edge">
<title>CardListPotionsComponent&#45;&gt;AppModule</title>
<path fill="none" stroke="black" d="M1575.5,-122.22C1575.5,-122.22 1575.5,-143.73 1575.5,-143.73"/>
<polygon fill="black" stroke="black" points="1572,-143.73 1575.5,-153.73 1579,-143.73 1572,-143.73"/>
</g>
<!-- CardListSpellsComponent -->
<g id="node6" class="node">
<title>CardListSpellsComponent</title>
<polygon fill="#ffffb3" stroke="black" points="1546.05,-122 1381.95,-122 1381.95,-86 1546.05,-86 1546.05,-122"/>
<text text-anchor="middle" x="1464" y="-99.8" font-family="Times,serif" font-size="14.00">CardListSpellsComponent</text>
</g>
<!-- CardListSpellsComponent&#45;&gt;AppModule -->
<g id="edge6" class="edge">
<title>CardListSpellsComponent&#45;&gt;AppModule</title>
<path fill="none" stroke="black" d="M1530.72,-122.22C1530.72,-122.22 1530.72,-143.73 1530.72,-143.73"/>
<polygon fill="black" stroke="black" points="1527.22,-143.73 1530.72,-153.73 1534.22,-143.73 1527.22,-143.73"/>
</g>
<!-- FormLogginComponent -->
<g id="node7" class="node">
<title>FormLogginComponent</title>
<polygon fill="#ffffb3" stroke="black" points="1364.11,-122 1211.89,-122 1211.89,-86 1364.11,-86 1364.11,-122"/>
<text text-anchor="middle" x="1288" y="-99.8" font-family="Times,serif" font-size="14.00">FormLogginComponent</text>
</g>
<!-- FormLogginComponent&#45;&gt;AppModule -->
<g id="edge7" class="edge">
<title>FormLogginComponent&#45;&gt;AppModule</title>
<path fill="none" stroke="black" d="M1288,-122.28C1288,-137.95 1288,-158 1288,-158 1288,-158 1505.26,-158 1505.26,-158"/>
<polygon fill="black" stroke="black" points="1505.26,-161.5 1515.26,-158 1505.26,-154.5 1505.26,-161.5"/>
</g>
<!-- FormPedidoComponent -->
<g id="node8" class="node">
<title>FormPedidoComponent</title>
<polygon fill="#ffffb3" stroke="black" points="1194.05,-122 1043.95,-122 1043.95,-86 1194.05,-86 1194.05,-122"/>
<text text-anchor="middle" x="1119" y="-99.8" font-family="Times,serif" font-size="14.00">FormPedidoComponent</text>
</g>
<!-- FormPedidoComponent&#45;&gt;AppModule -->
<g id="edge8" class="edge">
<title>FormPedidoComponent&#45;&gt;AppModule</title>
<path fill="none" stroke="black" d="M1119,-122.03C1119,-139.06 1119,-162 1119,-162 1119,-162 1505,-162 1505,-162"/>
<polygon fill="black" stroke="black" points="1505,-165.5 1515,-162 1505,-158.5 1505,-165.5"/>
</g>
<!-- FormRegisterComponent -->
<g id="node9" class="node">
<title>FormRegisterComponent</title>
<polygon fill="#ffffb3" stroke="black" points="1026.32,-122 867.68,-122 867.68,-86 1026.32,-86 1026.32,-122"/>
<text text-anchor="middle" x="947" y="-99.8" font-family="Times,serif" font-size="14.00">FormRegisterComponent</text>
</g>
<!-- FormRegisterComponent&#45;&gt;AppModule -->
<g id="edge9" class="edge">
<title>FormRegisterComponent&#45;&gt;AppModule</title>
<path fill="none" stroke="black" d="M947,-122.27C947,-140.56 947,-166 947,-166 947,-166 1505.07,-166 1505.07,-166"/>
<polygon fill="black" stroke="black" points="1505.07,-169.5 1515.07,-166 1505.07,-162.5 1505.07,-169.5"/>
</g>
<!-- ListPedidoComponent -->
<g id="node10" class="node">
<title>ListPedidoComponent</title>
<polygon fill="#ffffb3" stroke="black" points="850,-122 708,-122 708,-86 850,-86 850,-122"/>
<text text-anchor="middle" x="779" y="-99.8" font-family="Times,serif" font-size="14.00">ListPedidoComponent</text>
</g>
<!-- ListPedidoComponent&#45;&gt;AppModule -->
<g id="edge10" class="edge">
<title>ListPedidoComponent&#45;&gt;AppModule</title>
<path fill="none" stroke="black" d="M779,-122.03C779,-141.58 779,-170 779,-170 779,-170 1505.17,-170 1505.17,-170"/>
<polygon fill="black" stroke="black" points="1505.17,-173.5 1515.17,-170 1505.17,-166.5 1505.17,-173.5"/>
</g>
<!-- PagesWikiBookComponent -->
<g id="node11" class="node">
<title>PagesWikiBookComponent</title>
<polygon fill="#ffffb3" stroke="black" points="690.32,-122 517.68,-122 517.68,-86 690.32,-86 690.32,-122"/>
<text text-anchor="middle" x="604" y="-99.8" font-family="Times,serif" font-size="14.00">PagesWikiBookComponent</text>
</g>
<!-- PagesWikiBookComponent&#45;&gt;AppModule -->
<g id="edge11" class="edge">
<title>PagesWikiBookComponent&#45;&gt;AppModule</title>
<path fill="none" stroke="black" d="M604,-122.03C604,-142.77 604,-174 604,-174 604,-174 1505.13,-174 1505.13,-174"/>
<polygon fill="black" stroke="black" points="1505.13,-177.5 1515.13,-174 1505.13,-170.5 1505.13,-177.5"/>
</g>
<!-- PagesWikiComponent -->
<g id="node12" class="node">
<title>PagesWikiComponent</title>
<polygon fill="#ffffb3" stroke="black" points="499.98,-122 358.02,-122 358.02,-86 499.98,-86 499.98,-122"/>
<text text-anchor="middle" x="429" y="-99.8" font-family="Times,serif" font-size="14.00">PagesWikiComponent</text>
</g>
<!-- PagesWikiComponent&#45;&gt;AppModule -->
<g id="edge12" class="edge">
<title>PagesWikiComponent&#45;&gt;AppModule</title>
<path fill="none" stroke="black" d="M429,-122.29C429,-144.21 429,-178 429,-178 429,-178 1505.18,-178 1505.18,-178"/>
<polygon fill="black" stroke="black" points="1505.18,-181.5 1515.18,-178 1505.18,-174.5 1505.18,-181.5"/>
</g>
<!-- AppComponent  -->
<g id="node16" class="node">
<title>AppComponent </title>
<polygon fill="#80b1d3" stroke="black" points="2174.44,-258 2065.56,-258 2065.56,-222 2174.44,-222 2174.44,-258"/>
<text text-anchor="middle" x="2120" y="-235.8" font-family="Times,serif" font-size="14.00">AppComponent </text>
</g>
<!-- AppModule&#45;&gt;AppComponent  -->
<g id="edge15" class="edge">
<title>AppModule&#45;&gt;AppComponent </title>
<path fill="none" stroke="black" stroke-dasharray="1,5" d="M1598.97,-182C1721.45,-182 2069.85,-182 2069.85,-182 2069.85,-182 2069.85,-211.97 2069.85,-211.97"/>
<polygon fill="black" stroke="black" points="2066.35,-211.97 2069.85,-221.97 2073.35,-211.97 2066.35,-211.97"/>
</g>
<!-- AppServerModule -->
<g id="node19" class="node">
<title>AppServerModule</title>
<polygon fill="#8dd3c7" stroke="black" points="4105.19,-190 4102.19,-194 4081.19,-194 4078.19,-190 3984.81,-190 3984.81,-154 4105.19,-154 4105.19,-190"/>
<text text-anchor="middle" x="4045" y="-167.8" font-family="Times,serif" font-size="14.00">AppServerModule</text>
</g>
<!-- AppModule&#45;&gt;AppServerModule -->
<g id="edge18" class="edge">
<title>AppModule&#45;&gt;AppServerModule</title>
<path fill="none" stroke="black" d="M1587.16,-153.81C1587.16,-145.72 1587.16,-138 1587.16,-138 1587.16,-138 4045,-138 4045,-138 4045,-138 4045,-143.81 4045,-143.81"/>
<polygon fill="black" stroke="black" points="4041.5,-143.81 4045,-153.81 4048.5,-143.81 4041.5,-143.81"/>
</g>
<!-- AppRoutingModule -->
<g id="node14" class="node">
<title>AppRoutingModule</title>
<polygon fill="#8dd3c7" stroke="black" points="2528.27,-122 2525.27,-126 2504.27,-126 2501.27,-122 2399.73,-122 2399.73,-86 2528.27,-86 2528.27,-122"/>
<text text-anchor="middle" x="2464" y="-99.8" font-family="Times,serif" font-size="14.00">AppRoutingModule</text>
</g>
<!-- AppRoutingModule&#45;&gt;AppModule -->
<g id="edge13" class="edge">
<title>AppRoutingModule&#45;&gt;AppModule</title>
<path fill="none" stroke="black" d="M2464,-122.03C2464,-142.77 2464,-174 2464,-174 2464,-174 1608.93,-174 1608.93,-174"/>
<polygon fill="black" stroke="black" points="1608.93,-170.5 1598.93,-174 1608.93,-177.5 1608.93,-170.5"/>
</g>
<!-- SharedModule -->
<g id="node15" class="node">
<title>SharedModule</title>
<polygon fill="#8dd3c7" stroke="black" points="2645.42,-122 2642.42,-126 2621.42,-126 2618.42,-122 2546.58,-122 2546.58,-86 2645.42,-86 2645.42,-122"/>
<text text-anchor="middle" x="2596" y="-99.8" font-family="Times,serif" font-size="14.00">SharedModule</text>
</g>
<!-- SharedModule&#45;&gt;AppModule -->
<g id="edge14" class="edge">
<title>SharedModule&#45;&gt;AppModule</title>
<path fill="none" stroke="black" d="M2579.6,-122.29C2579.6,-144.21 2579.6,-178 2579.6,-178 2579.6,-178 1608.67,-178 1608.67,-178"/>
<polygon fill="black" stroke="black" points="1608.67,-174.5 1598.67,-178 1608.67,-181.5 1608.67,-174.5"/>
</g>
<!-- FooterComponent  -->
<g id="node24" class="node">
<title>FooterComponent </title>
<polygon fill="#fb8072" stroke="black" points="3314.88,-190 3193.12,-190 3193.12,-154 3314.88,-154 3314.88,-190"/>
<text text-anchor="middle" x="3254" y="-167.8" font-family="Times,serif" font-size="14.00">FooterComponent </text>
</g>
<!-- SharedModule&#45;&gt;FooterComponent  -->
<g id="edge24" class="edge">
<title>SharedModule&#45;&gt;FooterComponent </title>
<path fill="none" stroke="black" stroke-dasharray="5,2" d="M2645.46,-109C2798.48,-109 3254,-109 3254,-109 3254,-109 3254,-143.78 3254,-143.78"/>
<polygon fill="black" stroke="black" points="3250.5,-143.78 3254,-153.78 3257.5,-143.78 3250.5,-143.78"/>
</g>
<!-- NavbarComponent  -->
<g id="node25" class="node">
<title>NavbarComponent </title>
<polygon fill="#fb8072" stroke="black" points="3175.03,-190 3048.97,-190 3048.97,-154 3175.03,-154 3175.03,-190"/>
<text text-anchor="middle" x="3112" y="-167.8" font-family="Times,serif" font-size="14.00">NavbarComponent </text>
</g>
<!-- SharedModule&#45;&gt;NavbarComponent  -->
<g id="edge25" class="edge">
<title>SharedModule&#45;&gt;NavbarComponent </title>
<path fill="none" stroke="black" stroke-dasharray="5,2" d="M2645.48,-113C2774.63,-113 3112,-113 3112,-113 3112,-113 3112,-143.98 3112,-143.98"/>
<polygon fill="black" stroke="black" points="3108.5,-143.98 3112,-153.98 3115.5,-143.98 3108.5,-143.98"/>
</g>
<!-- SidebarCarritoComponent  -->
<g id="node26" class="node">
<title>SidebarCarritoComponent </title>
<polygon fill="#fb8072" stroke="black" points="3030.75,-190 2863.25,-190 2863.25,-154 3030.75,-154 3030.75,-190"/>
<text text-anchor="middle" x="2947" y="-167.8" font-family="Times,serif" font-size="14.00">SidebarCarritoComponent </text>
</g>
<!-- SharedModule&#45;&gt;SidebarCarritoComponent  -->
<g id="edge26" class="edge">
<title>SharedModule&#45;&gt;SidebarCarritoComponent </title>
<path fill="none" stroke="black" stroke-dasharray="5,2" d="M2645.55,-118C2742.3,-118 2947,-118 2947,-118 2947,-118 2947,-143.72 2947,-143.72"/>
<polygon fill="black" stroke="black" points="2943.5,-143.72 2947,-153.72 2950.5,-143.72 2943.5,-143.72"/>
</g>
<!-- SidebarMenuComponent  -->
<g id="node27" class="node">
<title>SidebarMenuComponent </title>
<polygon fill="#fb8072" stroke="black" points="2845.25,-190 2684.75,-190 2684.75,-154 2845.25,-154 2845.25,-190"/>
<text text-anchor="middle" x="2765" y="-167.8" font-family="Times,serif" font-size="14.00">SidebarMenuComponent </text>
</g>
<!-- SharedModule&#45;&gt;SidebarMenuComponent  -->
<g id="edge27" class="edge">
<title>SharedModule&#45;&gt;SidebarMenuComponent </title>
<path fill="none" stroke="black" stroke-dasharray="5,2" d="M2612.4,-122.2C2612.4,-146.36 2612.4,-186 2612.4,-186 2612.4,-186 2674.68,-186 2674.68,-186"/>
<polygon fill="black" stroke="black" points="2674.68,-189.5 2684.68,-186 2674.68,-182.5 2674.68,-189.5"/>
</g>
<!-- AuthService -->
<g id="node17" class="node">
<title>AuthService</title>
<ellipse fill="#fdb462" stroke="black" cx="275" cy="-104" rx="59.11" ry="18"/>
<text text-anchor="middle" x="275" y="-99.8" font-family="Times,serif" font-size="14.00">AuthService</text>
</g>
<!-- AuthService&#45;&gt;AppModule -->
<g id="edge16" class="edge">
<title>AuthService&#45;&gt;AppModule</title>
<path fill="none" stroke="black" d="M275,-122.09C275,-145.13 275,-182 275,-182 275,-182 1505.07,-182 1505.07,-182"/>
<polygon fill="black" stroke="black" points="1505.07,-185.5 1515.07,-182 1505.07,-178.5 1505.07,-185.5"/>
</g>
<!-- UserServiceService -->
<g id="node18" class="node">
<title>UserServiceService</title>
<ellipse fill="#fdb462" stroke="black" cx="111" cy="-104" rx="87.35" ry="18"/>
<text text-anchor="middle" x="111" y="-99.8" font-family="Times,serif" font-size="14.00">UserServiceService</text>
</g>
<!-- UserServiceService&#45;&gt;AppModule -->
<g id="edge17" class="edge">
<title>UserServiceService&#45;&gt;AppModule</title>
<path fill="none" stroke="black" d="M111,-122.2C111,-146.36 111,-186 111,-186 111,-186 1505.28,-186 1505.28,-186"/>
<polygon fill="black" stroke="black" points="1505.28,-189.5 1515.28,-186 1505.28,-182.5 1505.28,-189.5"/>
</g>
<!-- AppServerModule&#45;&gt;AppComponent  -->
<g id="edge19" class="edge">
<title>AppServerModule&#45;&gt;AppComponent </title>
<path fill="none" stroke="black" stroke-dasharray="1,5" d="M4045,-190.22C4045,-210.37 4045,-240 4045,-240 4045,-240 2184.51,-240 2184.51,-240"/>
<polygon fill="black" stroke="black" points="2184.51,-236.5 2174.51,-240 2184.51,-243.5 2184.51,-236.5"/>
</g>
<!-- FooterComponent -->
<g id="node20" class="node">
<title>FooterComponent</title>
<polygon fill="#ffffb3" stroke="black" points="3952.88,-190 3835.12,-190 3835.12,-154 3952.88,-154 3952.88,-190"/>
<text text-anchor="middle" x="3894" y="-167.8" font-family="Times,serif" font-size="14.00">FooterComponent</text>
</g>
<!-- FooterComponent&#45;&gt;SharedModule -->
<g id="edge20" class="edge">
<title>FooterComponent&#45;&gt;SharedModule</title>
<path fill="none" stroke="black" d="M3894,-153.62C3894,-129.72 3894,-91 3894,-91 3894,-91 2655.3,-91 2655.3,-91"/>
<polygon fill="black" stroke="black" points="2655.3,-87.5 2645.3,-91 2655.3,-94.5 2655.3,-87.5"/>
</g>
<!-- NavbarComponent -->
<g id="node21" class="node">
<title>NavbarComponent</title>
<polygon fill="#ffffb3" stroke="black" points="3817.03,-190 3694.97,-190 3694.97,-154 3817.03,-154 3817.03,-190"/>
<text text-anchor="middle" x="3756" y="-167.8" font-family="Times,serif" font-size="14.00">NavbarComponent</text>
</g>
<!-- NavbarComponent&#45;&gt;SharedModule -->
<g id="edge21" class="edge">
<title>NavbarComponent&#45;&gt;SharedModule</title>
<path fill="none" stroke="black" d="M3756,-153.75C3756,-130.98 3756,-95 3756,-95 3756,-95 2655.47,-95 2655.47,-95"/>
<polygon fill="black" stroke="black" points="2655.47,-91.5 2645.47,-95 2655.47,-98.5 2655.47,-91.5"/>
</g>
<!-- SidebarCarritoComponent -->
<g id="node22" class="node">
<title>SidebarCarritoComponent</title>
<polygon fill="#ffffb3" stroke="black" points="3676.75,-190 3513.25,-190 3513.25,-154 3676.75,-154 3676.75,-190"/>
<text text-anchor="middle" x="3595" y="-167.8" font-family="Times,serif" font-size="14.00">SidebarCarritoComponent</text>
</g>
<!-- SidebarCarritoComponent&#45;&gt;SharedModule -->
<g id="edge22" class="edge">
<title>SidebarCarritoComponent&#45;&gt;SharedModule</title>
<path fill="none" stroke="black" d="M3595,-153.83C3595,-132.5 3595,-100 3595,-100 3595,-100 2655.54,-100 2655.54,-100"/>
<polygon fill="black" stroke="black" points="2655.54,-96.5 2645.54,-100 2655.54,-103.5 2655.54,-96.5"/>
</g>
<!-- SidebarMenuComponent -->
<g id="node23" class="node">
<title>SidebarMenuComponent</title>
<polygon fill="#ffffb3" stroke="black" points="3495.25,-190 3338.75,-190 3338.75,-154 3495.25,-154 3495.25,-190"/>
<text text-anchor="middle" x="3417" y="-167.8" font-family="Times,serif" font-size="14.00">SidebarMenuComponent</text>
</g>
<!-- SidebarMenuComponent&#45;&gt;SharedModule -->
<g id="edge23" class="edge">
<title>SidebarMenuComponent&#45;&gt;SharedModule</title>
<path fill="none" stroke="black" d="M3417,-153.78C3417,-133.63 3417,-104 3417,-104 3417,-104 2655.51,-104 2655.51,-104"/>
<polygon fill="black" stroke="black" points="2655.51,-100.5 2645.51,-104 2655.51,-107.5 2655.51,-100.5"/>
</g>
</g>
</svg>
